<svg width="422" height="99" viewBox="0 0 422 99" fill="none" xmlns="http://www.w3.org/2000/svg">
<rect x="0.5" y="0.5" width="421" height="98" rx="24.5" fill="#202D2C" fill-opacity="0.59"/>
<rect x="0.5" y="0.5" width="421" height="98" rx="24.5" stroke="#69A8A1"/>
<circle cx="49.5" cy="49.5" r="39.5" fill="#202D2C"/>
<path d="M45.8984 9.09375L49.2812 9.1875H49.3047L52.6641 9.35156L52.6562 9.35938H56.1641L56.2969 9.39844L59.5547 10.3594L59.5625 10.3672L62.7812 11.3516L62.8281 11.3672L65.9922 12.6328L66.0078 12.6406L66.0312 12.6562L69.1016 14.0469L69.1953 14.0938L72.125 15.7812L72.1719 15.8125L72.2266 15.8516L74.9297 17.8828L74.9922 17.9219L75.0391 17.9766L77.4453 20.3828L79.7812 22.8047H79.7734L82.1719 25.2031L82.25 25.2734L82.3125 25.3672L84.1406 28.2266L84.1562 28.2578L84.1797 28.2891L85.8047 31.2656L85.8359 31.3203L85.8594 31.3828L87.0781 34.5391V34.5469L88.2812 37.7031L88.3047 37.7656L88.3203 37.8438L89.0625 41.1406V41.1484L89.0703 41.1641L89.7109 44.4844L89.7188 44.5156V44.5547L90.1172 47.9219L90.1328 48.0234L90.125 48.125L90 49.5859L89.9844 49.6172L89.9141 52.9062L89.9062 53L89.8906 53.0859L89.2109 56.3984L88.7891 59.6797L88.7812 59.7656L88.7578 59.8438L87.7734 63.0859L87.7656 63.1328L87.7422 63.1797L86.4531 66.3125L86.4375 66.3281L86.4297 66.3516L84.9844 69.4219L84.9609 69.4844L84.9219 69.5469L83.0703 72.3906L83.0469 72.4219L83.0234 72.4453L80.9688 75.1406L80.8906 75.2344L78.5312 77.6562L76.1719 80.0859L76.1094 80.1484L76.0312 80.2031L73.2734 82.1562L70.5078 84.1016L70.4531 84.1406L70.3906 84.1719L67.4141 85.7031L64.4531 87.3516L64.375 87.3906L64.2969 87.4219L61.0859 88.5469L61.0391 88.5625L60.9922 88.5703L57.6875 89.3594L57.6406 89.3672L57.6016 89.375L54.25 89.875L54.1641 89.8906H54.0781L50.7734 89.8281L47.4141 90.1406L47.2656 90.1484L47.125 90.125L43.8594 89.4844L40.5 89.0859L40.4297 89.0781L40.3516 89.0547L37.0938 88.1484L37.0312 88.1328L33.8281 87.0234L33.75 87L33.6797 86.9609L30.6953 85.3672L30.6875 85.3594L27.7109 83.75L27.6641 83.7266L27.6172 83.6953L24.8281 81.7812L24.75 81.7266L24.6875 81.6641L22.3516 79.3516L19.7188 77.2031L19.6406 77.1406L19.5781 77.0625L17.4141 74.4531L17.3672 74.3906L17.3281 74.3281L15.5859 71.4453L13.7812 68.5938L13.7344 68.5156L13.7031 68.4375L12.4141 65.3203V65.3047L11.1719 62.1797L9.91406 59.0156L9.85938 58.875L9.85156 58.7188L9.61719 55.4062L8.92969 52.1328L8.89844 51.9844L8.91406 51.8359L9.22656 48.5078L9.01562 45.2031L9.00781 45.0625L9.03906 44.9219L9.77344 41.6094L9.78906 41.5625L10.6797 38.3047V38.2812L10.6875 38.2656L11.7188 35.0547L11.7266 35.0156L11.7422 34.9844L12.9922 31.8516L13.0234 31.7656L13.0703 31.6953L14.8359 28.8125L14.8438 28.7969L14.8594 28.7812L16.7344 25.9844L16.7578 25.9453L16.7891 25.9141L18.8672 23.3438L20.8594 20.5781L20.9531 20.4453L21.0859 20.3516L23.8359 18.375L26.5391 16.3672L26.5547 16.3594L26.5625 16.3516L29.3359 14.4297L29.4062 14.3828L29.4766 14.3438L32.5312 12.9062L32.5938 12.875L35.7109 11.6562L38.8438 10.3828L38.9297 10.3438L39.0156 10.3281L42.3281 9.64844L42.3516 9.64062H42.375L45.7109 9.10938L45.8047 9.09375H45.8984ZM42.6875 11.6172L39.4922 12.2656L36.4688 13.5078L36.4609 13.5156H36.4531L33.3203 14.7422L30.3828 16.125L27.7266 17.9688L25.0312 19.9844H25.0234L25.0156 19.9922L22.3828 21.875L20.4922 24.5156L20.4766 24.5391L20.4609 24.5547L18.3984 27.1016L16.5312 29.8516L16.5391 29.8594L14.8125 32.6641L13.6016 35.7266L12.5938 38.875L12.5859 38.8672L11.7188 42.0859L11.0234 45.2031L11.2266 48.4766V48.5547L11.2188 48.6328L10.9141 51.8672L11.5859 55.0469L11.6016 55.1172V55.1797L11.8281 58.4297L13.0312 61.4375L14.2656 64.5547L15.5156 67.5859L17.2734 70.375L17.2891 70.3906L18.9922 73.2188L21.0469 75.7031L23.6094 77.7969L23.6875 77.8594L26.0312 80.1797L28.6875 82.0078L31.6406 83.6016L34.5469 85.1484L37.6875 86.2422H37.6797L40.8047 87.1016L44.1016 87.5078H44.1328L44.1719 87.5156L47.3594 88.1328L50.6172 87.8359L50.6719 87.8281H50.7266L54.0156 87.8828L57.25 87.4062L60.4844 86.6328L63.5703 85.5469L66.4531 83.9609L66.4609 83.9531L66.4766 83.9453L69.4062 82.4297L72.1172 80.5234L74.8125 78.6094L77.1016 76.2656L79.4219 73.8672L81.3906 71.2812L83.2109 68.4922L84.6172 65.5L85.8516 62.5078L86.8125 59.3672L87.2344 56.0703L87.25 55.9922L87.9141 52.7422L87.9922 49.5781V49.5L88 49.4141L88.1172 48.0625L87.7422 44.8594L87.1016 41.5469V41.5391L86.3906 38.3594L85.2109 35.2578L84.0078 32.1562L82.4531 29.3047L80.6875 26.5469L78.3516 24.2031L78.3438 24.1953L76.0156 21.7734V21.7812L73.6719 19.4375L71.0391 17.4688L68.2578 15.8516L65.2031 14.4766V14.4688L62.1953 13.2656L58.9844 12.2734L55.8594 11.3516H52.5625L49.2031 11.1875V11.1797L45.9141 11.0938L42.6875 11.6172Z" fill="#3AFFE9"/>
<path d="M33.1634 34.0322C33.1634 32.7526 33.1634 31.473 33.1634 30.1934H34.8407V28.3397H36.6046V26.4636L36.6719 26.3962H38.2145C38.2145 26.3962 38.2626 26.4732 38.3235 26.3738V24.5426H41.7198V22.6472H57.2066V24.5458H60.5804L60.6477 24.6131V26.4444C60.6798 26.4572 60.699 26.3995 60.7151 26.3995H62.325C62.325 27.0473 62.325 27.6951 62.325 28.3397C61.751 28.3397 61.1769 28.3397 60.6028 28.3397V26.4411H57.1617V24.5875H41.7198V26.4411H40.0425V28.3397H38.3203V30.1934H36.6655C36.5917 30.2671 36.6013 30.4532 36.5981 30.5654C36.5885 30.9855 36.5917 31.4698 36.5981 31.8931C36.5981 31.9957 36.6719 32.0759 36.5789 32.1336H34.8792V34.0322C34.3051 34.0322 33.731 34.0322 33.157 34.0322H33.1634Z" fill="#3AFFE9"/>
<path d="M33.1633 34.0322C33.1633 35.9147 33.1633 37.7972 33.1633 39.6798H31.4861V41.5783H34.8406V39.7022L34.908 39.6349H38.3267V37.7812H40.004V35.8826H41.7261V34.029H43.4483V32.1529L43.5157 32.0855H45.1705V30.1869H46.8927C46.9055 30.1549 46.8478 30.1356 46.8478 30.1196V28.3974L46.9151 28.3301H48.6149V26.4539L48.6822 26.3866H50.2697L50.337 26.4539V28.3301H52.0592V30.1837H53.7589L53.8263 30.2511V32.015C53.8263 32.015 53.7718 32.0502 53.7814 32.0823H55.5036V34.0226H57.2258V35.8762H58.9479V37.7748H60.6701V39.6285H64.1113V41.5687H65.8335V43.4224H67.5107V37.8197H65.8559L65.7886 37.7523V34.0226H64.1113V30.2511C64.0503 30.1517 64.0151 30.2286 64.0022 30.2286H62.4148C62.3506 30.1901 62.3538 30.142 62.3474 30.0779C62.2897 29.5808 62.3506 28.8592 62.3474 28.3333C62.9343 28.3333 63.5244 28.3333 64.1113 28.3333V30.1869H65.8335V32.0855H67.5107V37.778H69.2329V43.4256H70.9326L71 43.493V58.5404L70.9326 58.6077H69.2329V60.4614H67.5107V62.36H64.1145V64.2136H58.9511V66.1122H60.6733V68.0525H62.3506V69.8388L62.418 69.9061H64.1177V75.5986H55.5132V77.4523H43.4676V75.5986H34.8631V69.9061H36.6269V68.0525H38.2818L38.3491 67.9851V66.109H40.0264V64.2104H34.8631V62.3568H31.4668V60.4582H29.7671L29.6997 60.3908V56.6611H28V45.321H29.7222C29.735 45.2889 29.6773 45.2697 29.6773 45.2536V37.8421L29.7446 37.7748H31.4444V34.0258C32.0184 34.0258 32.5925 34.0258 33.1665 34.0258L33.1633 34.0322ZM62.325 56.6643C62.3282 55.4007 62.325 54.1339 62.325 52.8703H64.0888V43.4288H62.325V41.5751H60.6028V39.6766H57.2065V41.5751H55.4843V35.95L55.417 35.8826H53.7622V34.029H51.9983V32.1304H50.321V30.2543L50.2537 30.1869H48.6437V32.0631L48.5764 32.1304H46.8766V34.029H45.1545V35.8826H43.4772V41.5751H41.7133V39.6766H38.317V41.5751H36.6622C36.6013 41.6746 36.5981 41.8991 36.5949 42.037C36.582 42.4891 36.5756 42.9862 36.6398 43.4288H34.8759V52.8703H36.5756L36.6045 54.7368L36.6654 54.8106H38.3203V56.6643H40.0424V58.5628H41.7197V60.4165H45.1609V62.2926L45.2282 62.36H53.7654V60.4197H57.1616V58.566H60.6028V56.6675C61.1768 56.6675 61.7509 56.6675 62.325 56.6675C62.325 57.3153 62.325 57.9631 62.325 58.6077H60.6477V60.4614H58.9255V62.36H62.3217V60.4197H65.8078C65.8206 60.3876 65.7629 60.3684 65.7629 60.3524V58.6302L65.8302 58.5628H67.4851V56.6643H69.1624V52.9152H67.4851V54.8138H64.0888V56.6675C63.5019 56.6675 62.9118 56.6675 62.325 56.6675V56.6643ZM33.1633 47.2227H31.4861V52.8703H33.1633V47.2227ZM67.4883 47.2227H65.811V52.8703H67.4883V51.0167H69.1656V49.1181H67.4883V47.2195V47.2227ZM31.4412 52.9152H29.719V56.6643H31.4828V58.5628H33.1601V60.4165H36.5788L36.6334 60.4806L36.6077 62.283L36.6686 62.3568H40.0007V60.4582H38.3235V58.6045H36.6686L36.6013 58.5372V56.6611H34.8374V54.8074H31.4412V52.9088V52.9152ZM53.7654 64.2104H45.2282L45.1609 64.2778V67.9851L45.2282 68.0525H46.8831V69.9061H52.0015V68.0525H53.7654V64.2136V64.2104ZM57.1616 66.1507H55.4843V68.0044H57.1616V66.1507ZM41.7197 68.0493H38.3235V69.9029H36.6686L36.6013 73.652H45.1384L45.2058 73.7193V75.5505L52.0432 75.5281V73.6969L62.3217 73.652V69.9029H60.5996V68.0493H57.2033V69.9029H53.8295C53.7301 69.9639 53.8071 69.9991 53.8071 70.012V71.7758L53.7397 71.8432H45.225L45.1577 71.7758V69.8997H41.7165V68.046L41.7197 68.0493Z" fill="#3AFFE9"/>
<path d="M43.4868 43.4289V47.1779H45.1641V49.1182H43.4868V50.9943L43.4195 51.0616H41.7198V52.9153H38.3235V51.0616H36.6687L36.6013 50.9943V45.3242H38.3235V43.4257H43.4868V43.4289ZM41.7198 45.3691H38.3235V49.1182H41.7198V45.3691Z" fill="#3AFFE9"/>
<path d="M55.4876 49.1213C54.9135 49.1213 54.3394 49.1213 53.7654 49.1213V45.3274H55.4876V43.4288H60.6509V45.3274H62.3282V51.0648H60.606L60.6509 52.8736L57.1648 52.9185V51.0648H55.4876C55.4876 50.417 55.4876 49.7692 55.4876 49.1245C56.0616 49.1245 56.6357 49.1245 57.2097 49.1245V51.0231H58.9319V49.1245H60.6092V45.3755H57.2129V47.1618L57.1456 47.2292H55.4908C55.4908 47.861 55.4908 48.496 55.4908 49.1277L55.4876 49.1213Z" fill="#3AFFE9"/>
<path d="M46.8831 54.8138V56.6675H52.0464V58.5436L51.9791 58.611H46.9055L46.8382 58.5436V56.7798C46.8382 56.7798 46.9151 56.7317 46.8157 56.6707H45.1609V54.817H46.8831V54.8138Z" fill="#3AFFE9"/>
<path d="M50.3274 51.0167H48.6052V54.8107H50.3274V51.0167Z" fill="#3AFFE9"/>
</svg>
