<svg width="3440" height="1101" viewBox="0 0 3440 1101" fill="none" xmlns="http://www.w3.org/2000/svg">
<g clip-path="url(#clip0_246_9529)">
<rect y="-221" width="3440" height="1548.89" fill="#070B13"/>
<rect x="685.217" y="-221" width="2262.82" height="441.246" fill="url(#paint0_linear_246_9529)"/>
<rect width="487.357" height="1548.89" transform="matrix(-1 0 0 1 978.357 -221)" fill="url(#paint1_linear_246_9529)"/>
<rect x="2588.49" y="-221" width="535.886" height="1548.89" fill="url(#paint2_linear_246_9529)"/>
<rect x="2994.39" y="1327.89" width="2334.11" height="307.688" transform="rotate(-180 2994.39 1327.89)" fill="url(#paint3_linear_246_9529)"/>
<g clip-path="url(#clip1_246_9529)">
<rect width="3440" height="1101" fill="#1F1F1F"/>
<path d="M2351 524C1711.14 156.055 1112.04 368.549 931 524L931 -122H2351L2351 524Z" fill="url(#paint4_linear_246_9529)" stroke="url(#paint5_linear_246_9529)" stroke-width="3"/>
<rect width="1549" height="446.206" transform="matrix(4.37114e-08 -1 -1 -4.37114e-08 2574.21 1328)" fill="url(#paint6_linear_246_9529)"/>
<rect x="708" y="1328" width="1549" height="446.206" transform="rotate(-90 708 1328)" fill="url(#paint7_linear_246_9529)"/>
</g>
</g>
<defs>
<linearGradient id="paint0_linear_246_9529" x1="1816.63" y1="-384.768" x2="1816.63" y2="220.246" gradientUnits="userSpaceOnUse">
<stop offset="0.284" stop-color="#061E33"/>
<stop offset="1" stop-color="#061E33" stop-opacity="0"/>
</linearGradient>
<linearGradient id="paint1_linear_246_9529" x1="-590.118" y1="704.09" x2="487.322" y2="715.462" gradientUnits="userSpaceOnUse">
<stop offset="0.553507" stop-color="#070B13" stop-opacity="0"/>
<stop offset="0.797668" stop-color="#070B13"/>
</linearGradient>
<linearGradient id="paint2_linear_246_9529" x1="1939.61" y1="483.09" x2="3124.31" y2="496.84" gradientUnits="userSpaceOnUse">
<stop offset="0.553507" stop-color="#070B13" stop-opacity="0"/>
<stop offset="0.797668" stop-color="#070B13"/>
</linearGradient>
<linearGradient id="paint3_linear_246_9529" x1="4161.44" y1="1327.89" x2="4161.44" y2="1635.57" gradientUnits="userSpaceOnUse">
<stop stop-color="#070B13"/>
<stop offset="0.48" stop-color="#070B13"/>
<stop offset="1" stop-color="#070B13" stop-opacity="0"/>
</linearGradient>
<linearGradient id="paint4_linear_246_9529" x1="1641" y1="-3.60112e-05" x2="1641" y2="448.12" gradientUnits="userSpaceOnUse">
<stop stop-color="#0E0E0E"/>
<stop offset="1" stop-color="#221D26"/>
</linearGradient>
<linearGradient id="paint5_linear_246_9529" x1="2351" y1="482.67" x2="930.933" y2="521.542" gradientUnits="userSpaceOnUse">
<stop stop-color="#FF7CCD"/>
<stop offset="1" stop-color="#FDD9ED"/>
</linearGradient>
<linearGradient id="paint6_linear_246_9529" x1="774.5" y1="0" x2="774.5" y2="446.206" gradientUnits="userSpaceOnUse">
<stop stop-color="#1F1F1F"/>
<stop offset="0.516289" stop-color="#1F1F1F"/>
<stop offset="1" stop-color="#1F1F1F" stop-opacity="0"/>
</linearGradient>
<linearGradient id="paint7_linear_246_9529" x1="1482.5" y1="1328" x2="1482.5" y2="1774.21" gradientUnits="userSpaceOnUse">
<stop stop-color="#1F1F1F"/>
<stop offset="0.516346" stop-color="#1F1F1F"/>
<stop offset="1" stop-color="#1F1F1F" stop-opacity="0"/>
</linearGradient>
<clipPath id="clip0_246_9529">
<rect width="3440" height="1101" fill="white"/>
</clipPath>
<clipPath id="clip1_246_9529">
<rect width="3440" height="1101" fill="white"/>
</clipPath>
</defs>
</svg>
