<svg width="726" height="273" viewBox="0 0 726 273" fill="none" xmlns="http://www.w3.org/2000/svg">
<g filter="url(#filter0_i_244_7102)">
<g clip-path="url(#clip0_244_7102)">
<rect x="1" y="1" width="724" height="271" rx="16" fill="url(#paint0_radial_244_7102)"/>
<g opacity="0.2">
<path opacity="0.5" d="M4.60388 5.16614H3.70299V366.732H4.60388V5.16614Z" fill="white"/>
<path opacity="0.2" d="M22.2883 4.703H21.3874V367.169H22.2883V4.703Z" fill="white"/>
<path opacity="0.2" d="M40.4104 4.703H39.5095V367.169H40.4104V4.703Z" fill="white"/>
<path opacity="0.2" d="M58.5322 4.703H57.6314V367.169H58.5322V4.703Z" fill="white"/>
<path opacity="0.2" d="M76.6544 4.703H75.7535V367.169H76.6544V4.703Z" fill="white"/>
<path opacity="0.5" d="M94.7765 4.703H93.8756V367.169H94.7765V4.703Z" fill="white"/>
<path opacity="0.2" d="M112.898 4.703H111.997V367.169H112.898V4.703Z" fill="white"/>
<path opacity="0.2" d="M131.02 4.703H130.12V367.169H131.02V4.703Z" fill="white"/>
<path opacity="0.2" d="M149.143 4.703H148.242V367.169H149.143V4.703Z" fill="white"/>
<path opacity="0.2" d="M167.265 4.703H166.364V367.169H167.265V4.703Z" fill="white"/>
<path opacity="0.5" d="M185.387 4.703H184.486V367.169H185.387V4.703Z" fill="white"/>
<path opacity="0.2" d="M203.509 4.703H202.608V367.169H203.509V4.703Z" fill="white"/>
<path opacity="0.2" d="M221.631 4.703H220.73V367.169H221.631V4.703Z" fill="white"/>
<path opacity="0.2" d="M239.753 4.703H238.852V367.169H239.753V4.703Z" fill="white"/>
<path opacity="0.2" d="M257.875 4.703H256.974V367.169H257.875V4.703Z" fill="white"/>
<path opacity="0.5" d="M275.997 4.703H275.096V367.169H275.997V4.703Z" fill="white"/>
<path opacity="0.2" d="M294.119 4.703H293.218V367.169H294.119V4.703Z" fill="white"/>
<path opacity="0.2" d="M312.241 4.703H311.34V367.169H312.241V4.703Z" fill="white"/>
<path opacity="0.2" d="M330.363 4.703H329.462V367.169H330.363V4.703Z" fill="white"/>
<path opacity="0.2" d="M348.485 4.703H347.584V367.169H348.485V4.703Z" fill="white"/>
<path opacity="0.5" d="M366.169 5.16614H365.268V366.732H366.169V5.16614Z" fill="white"/>
<path opacity="0.5" d="M365.732 4.703H4.16616V5.60396H365.732V4.703Z" fill="white"/>
<path opacity="0.2" d="M366.169 22.3875H3.70299V23.2884H366.169V22.3875Z" fill="white"/>
<path opacity="0.2" d="M366.169 40.5093H3.70299V41.4102H366.169V40.5093Z" fill="white"/>
<path opacity="0.2" d="M366.169 58.6313H3.70299V59.5323H366.169V58.6313Z" fill="white"/>
<path opacity="0.2" d="M366.169 76.7535H3.70299V77.6545H366.169V76.7535Z" fill="white"/>
<path opacity="0.5" d="M366.169 94.8752H3.70299V95.7762H366.169V94.8752Z" fill="white"/>
<path opacity="0.2" d="M366.169 112.997H3.70299V113.898H366.169V112.997Z" fill="white"/>
<path opacity="0.2" d="M366.169 131.12H3.70299V132.021H366.169V131.12Z" fill="white"/>
<path opacity="0.2" d="M366.169 149.241H3.70299V150.142H366.169V149.241Z" fill="white"/>
<path opacity="0.2" d="M366.169 167.364H3.70299V168.264H366.169V167.364Z" fill="white"/>
<path opacity="0.5" d="M366.169 185.486H3.70299V186.387H366.169V185.486Z" fill="white"/>
<path opacity="0.2" d="M366.169 203.607H3.70299V204.508H366.169V203.607Z" fill="white"/>
<path opacity="0.2" d="M366.169 221.73H3.70299V222.631H366.169V221.73Z" fill="white"/>
<path opacity="0.2" d="M366.169 239.852H3.70299V240.753H366.169V239.852Z" fill="white"/>
<path opacity="0.2" d="M366.169 257.974H3.70299V258.875H366.169V257.974Z" fill="white"/>
<path d="M4.60388 2H3.70299V8.33242H4.60388V2Z" fill="white"/>
<path d="M7.33263 4.703H1V5.60396H7.33263V4.703Z" fill="white"/>
<path d="M366.169 2H365.268V8.33242H366.169V2Z" fill="white"/>
<path d="M368.898 4.703H362.566V5.60396H368.898V4.703Z" fill="white"/>
<path d="M4.60388 92.3784H3.70299V98.7108H4.60388V92.3784Z" fill="white"/>
<path d="M7.33263 95.1069H1V96.0079H7.33263V95.1069Z" fill="white"/>
<path d="M366.169 92.3784H365.268V98.7108H366.169V92.3784Z" fill="white"/>
<path d="M368.898 95.1069H362.566V96.0079H368.898V95.1069Z" fill="white"/>
<path d="M4.60388 182.783H3.70299V189.115H4.60388V182.783Z" fill="white"/>
<path d="M7.33263 185.486H1V186.387H7.33263V185.486Z" fill="white"/>
<path d="M366.169 182.783H365.268V189.115H366.169V182.783Z" fill="white"/>
<path d="M368.898 185.486H362.566V186.387H368.898V185.486Z" fill="white"/>
<path d="M95.0081 2H94.1072V8.33242H95.0081V2Z" fill="white"/>
<path d="M97.7111 4.703H91.3785V5.60396H97.7111V4.703Z" fill="white"/>
<path d="M95.0081 92.3784H94.1072V98.7108H95.0081V92.3784Z" fill="white"/>
<path d="M97.7111 95.1069H91.3785V96.0079H97.7111V95.1069Z" fill="white"/>
<path d="M95.0081 182.783H94.1072V189.115H95.0081V182.783Z" fill="white"/>
<path d="M97.7111 185.486H91.3785V186.387H97.7111V185.486Z" fill="white"/>
<path d="M185.387 2H184.486V8.33242H185.387V2Z" fill="white"/>
<path d="M188.115 4.703H181.783V5.60396H188.115V4.703Z" fill="white"/>
<path d="M185.387 92.3784H184.486V98.7108H185.387V92.3784Z" fill="white"/>
<path d="M188.115 95.1069H181.783V96.0079H188.115V95.1069Z" fill="white"/>
<path d="M185.387 182.783H184.486V189.115H185.387V182.783Z" fill="white"/>
<path d="M188.115 185.486H181.783V186.387H188.115V185.486Z" fill="white"/>
<path d="M275.791 2H274.89V8.33242H275.791V2Z" fill="white"/>
<path d="M278.494 4.703H272.161V5.60396H278.494V4.703Z" fill="white"/>
<path d="M275.791 92.3784H274.89V98.7108H275.791V92.3784Z" fill="white"/>
<path d="M278.494 95.1069H272.161V96.0079H278.494V95.1069Z" fill="white"/>
<path d="M275.791 182.783H274.89V189.115H275.791V182.783Z" fill="white"/>
<path d="M278.494 185.486H272.161V186.387H278.494V185.486Z" fill="white"/>
<path d="M49.8061 49.9049H48.9049V50.8059H49.8061V49.9049Z" fill="white"/>
<path d="M140.185 49.9049H139.283V50.8059H140.185V49.9049Z" fill="white"/>
<path d="M230.589 49.9049H229.688V50.8059H230.589V49.9049Z" fill="white"/>
<path d="M320.967 49.9049H320.066V50.8059H320.967V49.9049Z" fill="white"/>
<path d="M49.8061 140.309H48.9049V141.21H49.8061V140.309Z" fill="white"/>
<path d="M140.185 140.309H139.283V141.21H140.185V140.309Z" fill="white"/>
<path d="M230.589 140.309H229.688V141.21H230.589V140.309Z" fill="white"/>
<path d="M320.967 140.309H320.066V141.21H320.967V140.309Z" fill="white"/>
<path d="M49.8061 230.688H48.9049V231.589H49.8061V230.688Z" fill="white"/>
<path d="M140.185 230.688H139.283V231.589H140.185V230.688Z" fill="white"/>
<path d="M230.589 230.688H229.688V231.589H230.589V230.688Z" fill="white"/>
<path d="M320.967 230.688H320.066V231.589H320.967V230.688Z" fill="white"/>
<path opacity="0.5" d="M366.169 5.16614H365.268V366.732H366.169V5.16614Z" fill="white"/>
<path opacity="0.2" d="M383.828 4.703H382.927V367.169H383.828V4.703Z" fill="white"/>
<path opacity="0.2" d="M401.95 4.703H401.049V367.169H401.95V4.703Z" fill="white"/>
<path opacity="0.2" d="M420.098 4.703H419.197V367.169H420.098V4.703Z" fill="white"/>
<path opacity="0.2" d="M438.22 4.703H437.319V367.169H438.22V4.703Z" fill="white"/>
<path opacity="0.5" d="M456.342 4.703H455.441V367.169H456.342V4.703Z" fill="white"/>
<path opacity="0.2" d="M474.464 4.703H473.563V367.169H474.464V4.703Z" fill="white"/>
<path opacity="0.2" d="M492.586 4.703H491.685V367.169H492.586V4.703Z" fill="white"/>
<path opacity="0.2" d="M510.708 4.703H509.807V367.169H510.708V4.703Z" fill="white"/>
<path opacity="0.2" d="M528.83 4.703H527.929V367.169H528.83V4.703Z" fill="white"/>
<path opacity="0.5" d="M546.952 4.703H546.051V367.169H546.952V4.703Z" fill="white"/>
<path opacity="0.2" d="M565.074 4.703H564.173V367.169H565.074V4.703Z" fill="white"/>
<path opacity="0.2" d="M583.196 4.703H582.295V367.169H583.196V4.703Z" fill="white"/>
<path opacity="0.2" d="M601.318 4.703H600.417V367.169H601.318V4.703Z" fill="white"/>
<path opacity="0.2" d="M619.44 4.703H618.539V367.169H619.44V4.703Z" fill="white"/>
<path opacity="0.5" d="M637.562 4.703H636.661V367.169H637.562V4.703Z" fill="white"/>
<path opacity="0.2" d="M655.684 4.703H654.783V367.169H655.684V4.703Z" fill="white"/>
<path opacity="0.2" d="M673.806 4.703H672.905V367.169H673.806V4.703Z" fill="white"/>
<path opacity="0.2" d="M691.928 4.703H691.027V367.169H691.928V4.703Z" fill="white"/>
<path opacity="0.2" d="M710.05 4.703H709.149V367.169H710.05V4.703Z" fill="white"/>
<path opacity="0.5" d="M727.297 4.703H365.732V5.60396H727.297V4.703Z" fill="white"/>
<path opacity="0.2" d="M727.735 22.3875H365.268V23.2884H727.735V22.3875Z" fill="white"/>
<path opacity="0.2" d="M727.735 40.5093H365.268V41.4102H727.735V40.5093Z" fill="white"/>
<path opacity="0.2" d="M727.735 58.6313H365.268V59.5323H727.735V58.6313Z" fill="white"/>
<path opacity="0.2" d="M727.735 76.7535H365.268V77.6545H727.735V76.7535Z" fill="white"/>
<path opacity="0.5" d="M727.735 94.8752H365.268V95.7762H727.735V94.8752Z" fill="white"/>
<path opacity="0.2" d="M727.735 112.997H365.268V113.898H727.735V112.997Z" fill="white"/>
<path opacity="0.2" d="M727.735 131.12H365.268V132.021H727.735V131.12Z" fill="white"/>
<path opacity="0.2" d="M727.735 149.241H365.268V150.142H727.735V149.241Z" fill="white"/>
<path opacity="0.2" d="M727.735 167.364H365.268V168.264H727.735V167.364Z" fill="white"/>
<path opacity="0.5" d="M727.735 185.486H365.268V186.387H727.735V185.486Z" fill="white"/>
<path opacity="0.2" d="M727.735 203.607H365.268V204.508H727.735V203.607Z" fill="white"/>
<path opacity="0.2" d="M727.735 221.73H365.268V222.631H727.735V221.73Z" fill="white"/>
<path opacity="0.2" d="M727.735 239.852H365.268V240.753H727.735V239.852Z" fill="white"/>
<path opacity="0.2" d="M727.735 257.974H365.268V258.875H727.735V257.974Z" fill="white"/>
<path d="M366.169 2H365.268V8.33242H366.169V2Z" fill="white"/>
<path d="M368.898 4.703H362.566V5.60396H368.898V4.703Z" fill="white"/>
<path d="M730.438 4.703H724.105V5.60396H730.438V4.703Z" fill="white"/>
<path d="M366.169 92.3784H365.268V98.7108H366.169V92.3784Z" fill="white"/>
<path d="M368.898 95.1069H362.566V96.0079H368.898V95.1069Z" fill="white"/>
<path d="M730.438 95.1069H724.105V96.0079H730.438V95.1069Z" fill="white"/>
<path d="M366.169 182.783H365.268V189.115H366.169V182.783Z" fill="white"/>
<path d="M368.898 185.486H362.566V186.387H368.898V185.486Z" fill="white"/>
<path d="M730.438 185.486H724.105V186.387H730.438V185.486Z" fill="white"/>
<path d="M456.548 2H455.647V8.33242H456.548V2Z" fill="white"/>
<path d="M459.276 4.703H452.944V5.60396H459.276V4.703Z" fill="white"/>
<path d="M456.548 92.3784H455.647V98.7108H456.548V92.3784Z" fill="white"/>
<path d="M459.276 95.1069H452.944V96.0079H459.276V95.1069Z" fill="white"/>
<path d="M456.548 182.783H455.647V189.115H456.548V182.783Z" fill="white"/>
<path d="M459.276 185.486H452.944V186.387H459.276V185.486Z" fill="white"/>
<path d="M546.952 2H546.051V8.33242H546.952V2Z" fill="white"/>
<path d="M549.681 4.703H543.348V5.60396H549.681V4.703Z" fill="white"/>
<path d="M546.952 92.3784H546.051V98.7108H546.952V92.3784Z" fill="white"/>
<path d="M549.681 95.1069H543.348V96.0079H549.681V95.1069Z" fill="white"/>
<path d="M546.952 182.783H546.051V189.115H546.952V182.783Z" fill="white"/>
<path d="M549.681 185.486H543.348V186.387H549.681V185.486Z" fill="white"/>
<path d="M637.331 2H636.429V8.33242H637.331V2Z" fill="white"/>
<path d="M640.059 4.703H633.727V5.60396H640.059V4.703Z" fill="white"/>
<path d="M637.331 92.3784H636.429V98.7108H637.331V92.3784Z" fill="white"/>
<path d="M640.059 95.1069H633.727V96.0079H640.059V95.1069Z" fill="white"/>
<path d="M637.331 182.783H636.429V189.115H637.331V182.783Z" fill="white"/>
<path d="M640.059 185.486H633.727V186.387H640.059V185.486Z" fill="white"/>
<path d="M411.372 49.9049H410.471V50.8059H411.372V49.9049Z" fill="white"/>
<path d="M501.75 49.9049H500.849V50.8059H501.75V49.9049Z" fill="white"/>
<path d="M592.154 49.9049H591.253V50.8059H592.154V49.9049Z" fill="white"/>
<path d="M682.533 49.9049H681.632V50.8059H682.533V49.9049Z" fill="white"/>
<path d="M411.372 140.309H410.471V141.21H411.372V140.309Z" fill="white"/>
<path d="M501.75 140.309H500.849V141.21H501.75V140.309Z" fill="white"/>
<path d="M592.154 140.309H591.253V141.21H592.154V140.309Z" fill="white"/>
<path d="M682.533 140.309H681.632V141.21H682.533V140.309Z" fill="white"/>
<path d="M411.372 230.688H410.471V231.589H411.372V230.688Z" fill="white"/>
<path d="M501.75 230.688H500.849V231.589H501.75V230.688Z" fill="white"/>
<path d="M592.154 230.688H591.253V231.589H592.154V230.688Z" fill="white"/>
<path d="M682.533 230.688H681.632V231.589H682.533V230.688Z" fill="white"/>
</g>
</g>
<rect x="0.5" y="0.5" width="725" height="272" rx="16.5" stroke="#FFA0DA"/>
</g>
<defs>
<filter id="filter0_i_244_7102" x="0" y="0" width="726" height="275" filterUnits="userSpaceOnUse" color-interpolation-filters="sRGB">
<feFlood flood-opacity="0" result="BackgroundImageFix"/>
<feBlend mode="normal" in="SourceGraphic" in2="BackgroundImageFix" result="shape"/>
<feColorMatrix in="SourceAlpha" type="matrix" values="0 0 0 0 0 0 0 0 0 0 0 0 0 0 0 0 0 0 127 0" result="hardAlpha"/>
<feMorphology radius="10" operator="erode" in="SourceAlpha" result="effect1_innerShadow_244_7102"/>
<feOffset dy="2"/>
<feGaussianBlur stdDeviation="7.15"/>
<feComposite in2="hardAlpha" operator="arithmetic" k2="-1" k3="1"/>
<feColorMatrix type="matrix" values="0 0 0 0 0 0 0 0 0 0 0 0 0 0 0 0 0 0 0.25 0"/>
<feBlend mode="normal" in2="shape" result="effect1_innerShadow_244_7102"/>
</filter>
<radialGradient id="paint0_radial_244_7102" cx="0" cy="0" r="1" gradientUnits="userSpaceOnUse" gradientTransform="translate(363 136.5) rotate(-0.148167) scale(426.001 655.522)">
<stop offset="0.741386" stop-color="#181718"/>
<stop offset="1" stop-color="#373145"/>
</radialGradient>
<clipPath id="clip0_244_7102">
<rect x="1" y="1" width="724" height="271" rx="16" fill="white"/>
</clipPath>
</defs>
</svg>
