<svg width="514" height="797" viewBox="0 0 514 797" fill="none" xmlns="http://www.w3.org/2000/svg">
<g filter="url(#filter0_i_237_172)">
<g clip-path="url(#clip0_237_172)">
<rect x="5" y="5" width="504" height="787" rx="16" fill="url(#paint0_radial_237_172)"/>
<g opacity="0.2">
<path opacity="0.5" d="M8.88588 9.4137H7.91455V399.25H8.88588V9.4137Z" fill="white"/>
<path opacity="0.2" d="M27.9528 8.91431H26.9814V399.722H27.9528V8.91431Z" fill="white"/>
<path opacity="0.2" d="M47.4923 8.91431H46.521V399.722H47.4923V8.91431Z" fill="white"/>
<path opacity="0.2" d="M67.0304 8.91431H66.0591V399.722H67.0304V8.91431Z" fill="white"/>
<path opacity="0.2" d="M86.5695 8.91431H85.5981V399.722H86.5695V8.91431Z" fill="white"/>
<path opacity="0.5" d="M106.109 8.91431H105.137V399.722H106.109V8.91431Z" fill="white"/>
<path opacity="0.2" d="M125.648 8.91431H124.676V399.722H125.648V8.91431Z" fill="white"/>
<path opacity="0.2" d="M145.187 8.91431H144.215V399.722H145.187V8.91431Z" fill="white"/>
<path opacity="0.2" d="M164.726 8.91431H163.754V399.722H164.726V8.91431Z" fill="white"/>
<path opacity="0.2" d="M184.265 8.91431H183.293V399.722H184.265V8.91431Z" fill="white"/>
<path opacity="0.5" d="M203.804 8.91431H202.833V399.722H203.804V8.91431Z" fill="white"/>
<path opacity="0.2" d="M223.343 8.91431H222.372V399.722H223.343V8.91431Z" fill="white"/>
<path opacity="0.2" d="M242.882 8.91431H241.91V399.722H242.882V8.91431Z" fill="white"/>
<path opacity="0.2" d="M262.421 8.91431H261.449V399.722H262.421V8.91431Z" fill="white"/>
<path opacity="0.2" d="M281.959 8.91431H280.988V399.722H281.959V8.91431Z" fill="white"/>
<path opacity="0.5" d="M301.499 8.91431H300.527V399.722H301.499V8.91431Z" fill="white"/>
<path opacity="0.2" d="M321.037 8.91431H320.066V399.722H321.037V8.91431Z" fill="white"/>
<path opacity="0.2" d="M340.576 8.91431H339.605V399.722H340.576V8.91431Z" fill="white"/>
<path opacity="0.2" d="M360.116 8.91431H359.144V399.722H360.116V8.91431Z" fill="white"/>
<path opacity="0.2" d="M379.654 8.91431H378.683V399.722H379.654V8.91431Z" fill="white"/>
<path opacity="0.5" d="M398.722 9.4137H397.75V399.25H398.722V9.4137Z" fill="white"/>
<path opacity="0.5" d="M398.25 8.91431H8.41357V9.8857H398.25V8.91431Z" fill="white"/>
<path opacity="0.2" d="M398.722 27.9816H7.91455V28.953H398.722V27.9816Z" fill="white"/>
<path opacity="0.2" d="M398.722 47.5203H7.91455V48.4917H398.722V47.5203Z" fill="white"/>
<path opacity="0.2" d="M398.722 67.0593H7.91455V68.0307H398.722V67.0593Z" fill="white"/>
<path opacity="0.2" d="M398.722 86.5985H7.91455V87.5699H398.722V86.5985Z" fill="white"/>
<path opacity="0.5" d="M398.722 106.137H7.91455V107.108H398.722V106.137Z" fill="white"/>
<path opacity="0.2" d="M398.722 125.676H7.91455V126.648H398.722V125.676Z" fill="white"/>
<path opacity="0.2" d="M398.722 145.215H7.91455V146.187H398.722V145.215Z" fill="white"/>
<path opacity="0.2" d="M398.722 164.754H7.91455V165.726H398.722V164.754Z" fill="white"/>
<path opacity="0.2" d="M398.722 184.293H7.91455V185.265H398.722V184.293Z" fill="white"/>
<path opacity="0.5" d="M398.722 203.832H7.91455V204.804H398.722V203.832Z" fill="white"/>
<path opacity="0.2" d="M398.722 223.371H7.91455V224.342H398.722V223.371Z" fill="white"/>
<path opacity="0.2" d="M398.722 242.91H7.91455V243.882H398.722V242.91Z" fill="white"/>
<path opacity="0.2" d="M398.722 262.449H7.91455V263.421H398.722V262.449Z" fill="white"/>
<path opacity="0.2" d="M398.722 281.988H7.91455V282.959H398.722V281.988Z" fill="white"/>
<path opacity="0.5" d="M398.722 301.527H7.91455V302.498H398.722V301.527Z" fill="white"/>
<path opacity="0.2" d="M398.722 321.094H7.91455V322.065H398.722V321.094Z" fill="white"/>
<path opacity="0.2" d="M398.722 340.633H7.91455V341.604H398.722V340.633Z" fill="white"/>
<path opacity="0.2" d="M398.722 360.172H7.91455V361.143H398.722V360.172Z" fill="white"/>
<path opacity="0.2" d="M398.722 379.711H7.91455V380.682H398.722V379.711Z" fill="white"/>
<path opacity="0.5" d="M398.25 398.75H8.41357V399.722H398.25V398.75Z" fill="white"/>
<path d="M8.88588 6H7.91455V12.8275H8.88588V6Z" fill="white"/>
<path d="M11.8278 8.91431H5V9.8857H11.8278V8.91431Z" fill="white"/>
<path d="M398.721 6H397.75V12.8275H398.721V6Z" fill="white"/>
<path d="M401.663 8.91431H394.836V9.8857H401.663V8.91431Z" fill="white"/>
<path d="M8.88588 103.445H7.91455V110.273H8.88588V103.445Z" fill="white"/>
<path d="M11.8278 106.387H5V107.358H11.8278V106.387Z" fill="white"/>
<path d="M398.721 103.445H397.75V110.273H398.721V103.445Z" fill="white"/>
<path d="M401.663 106.387H394.836V107.358H401.663V106.387Z" fill="white"/>
<path d="M8.88588 200.918H7.91455V207.746H8.88588V200.918Z" fill="white"/>
<path d="M11.8278 203.832H5V204.804H11.8278V203.832Z" fill="white"/>
<path d="M398.721 200.918H397.75V207.746H398.721V200.918Z" fill="white"/>
<path d="M401.663 203.832H394.836V204.804H401.663V203.832Z" fill="white"/>
<path d="M8.88588 298.363H7.91455V305.191H8.88588V298.363Z" fill="white"/>
<path d="M11.8278 301.305H5V302.277H11.8278V301.305Z" fill="white"/>
<path d="M398.721 298.363H397.75V305.191H398.721V298.363Z" fill="white"/>
<path d="M401.663 301.305H394.836V302.277H401.663V301.305Z" fill="white"/>
<path d="M8.88588 395.836H7.91455V402.663H8.88588V395.836Z" fill="white"/>
<path d="M11.8278 398.75H5V399.722H11.8278V398.75Z" fill="white"/>
<path d="M106.358 6H105.387V12.8275H106.358V6Z" fill="white"/>
<path d="M109.273 8.91431H102.445V9.8857H109.273V8.91431Z" fill="white"/>
<path d="M106.358 103.445H105.387V110.273H106.358V103.445Z" fill="white"/>
<path d="M109.273 106.387H102.445V107.358H109.273V106.387Z" fill="white"/>
<path d="M106.358 200.918H105.387V207.746H106.358V200.918Z" fill="white"/>
<path d="M109.273 203.832H102.445V204.804H109.273V203.832Z" fill="white"/>
<path d="M106.358 298.363H105.387V305.191H106.358V298.363Z" fill="white"/>
<path d="M109.273 301.305H102.445V302.277H109.273V301.305Z" fill="white"/>
<path d="M106.358 395.836H105.387V402.663H106.358V395.836Z" fill="white"/>
<path d="M109.273 398.75H102.445V399.722H109.273V398.75Z" fill="white"/>
<path d="M203.804 6H202.833V12.8275H203.804V6Z" fill="white"/>
<path d="M206.746 8.91431H199.918V9.8857H206.746V8.91431Z" fill="white"/>
<path d="M203.804 103.445H202.833V110.273H203.804V103.445Z" fill="white"/>
<path d="M206.746 106.387H199.918V107.358H206.746V106.387Z" fill="white"/>
<path d="M203.804 200.918H202.833V207.746H203.804V200.918Z" fill="white"/>
<path d="M206.746 203.832H199.918V204.804H206.746V203.832Z" fill="white"/>
<path d="M203.804 298.363H202.833V305.191H203.804V298.363Z" fill="white"/>
<path d="M206.746 301.305H199.918V302.277H206.746V301.305Z" fill="white"/>
<path d="M203.804 395.836H202.833V402.663H203.804V395.836Z" fill="white"/>
<path d="M206.746 398.75H199.918V399.722H206.746V398.75Z" fill="white"/>
<path d="M301.277 6H300.306V12.8275H301.277V6Z" fill="white"/>
<path d="M304.192 8.91431H297.364V9.8857H304.192V8.91431Z" fill="white"/>
<path d="M301.277 103.445H300.306V110.273H301.277V103.445Z" fill="white"/>
<path d="M304.192 106.387H297.364V107.358H304.192V106.387Z" fill="white"/>
<path d="M301.277 200.918H300.306V207.746H301.277V200.918Z" fill="white"/>
<path d="M304.192 203.832H297.364V204.804H304.192V203.832Z" fill="white"/>
<path d="M301.277 298.363H300.306V305.191H301.277V298.363Z" fill="white"/>
<path d="M304.192 301.305H297.364V302.277H304.192V301.305Z" fill="white"/>
<path d="M301.277 395.836H300.306V402.663H301.277V395.836Z" fill="white"/>
<path d="M304.192 398.75H297.364V399.722H304.192V398.75Z" fill="white"/>
<path d="M398.721 395.836H397.75V402.663H398.721V395.836Z" fill="white"/>
<path d="M401.663 398.75H394.836V399.722H401.663V398.75Z" fill="white"/>
<path d="M57.6221 57.6505H56.6504V58.6219H57.6221V57.6505Z" fill="white"/>
<path d="M155.067 57.6505H154.096V58.6219H155.067V57.6505Z" fill="white"/>
<path d="M252.54 57.6505H251.569V58.6219H252.54V57.6505Z" fill="white"/>
<path d="M349.985 57.6505H349.014V58.6219H349.985V57.6505Z" fill="white"/>
<path d="M57.6221 155.124H56.6504V156.095H57.6221V155.124Z" fill="white"/>
<path d="M155.067 155.124H154.096V156.095H155.067V155.124Z" fill="white"/>
<path d="M252.54 155.124H251.569V156.095H252.54V155.124Z" fill="white"/>
<path d="M349.985 155.124H349.014V156.095H349.985V155.124Z" fill="white"/>
<path d="M57.6221 252.568H56.6504V253.54H57.6221V252.568Z" fill="white"/>
<path d="M155.067 252.568H154.096V253.54H155.067V252.568Z" fill="white"/>
<path d="M252.54 252.568H251.569V253.54H252.54V252.568Z" fill="white"/>
<path d="M349.985 252.568H349.014V253.54H349.985V252.568Z" fill="white"/>
<path d="M57.6221 350.014H56.6504V350.985H57.6221V350.014Z" fill="white"/>
<path d="M155.067 350.014H154.096V350.985H155.067V350.014Z" fill="white"/>
<path d="M252.54 350.014H251.569V350.985H252.54V350.014Z" fill="white"/>
<path d="M349.985 350.014H349.014V350.985H349.985V350.014Z" fill="white"/>
<path opacity="0.5" d="M398.721 9.4137H397.75V399.25H398.721V9.4137Z" fill="white"/>
<path opacity="0.2" d="M417.761 8.91431H416.79V399.722H417.761V8.91431Z" fill="white"/>
<path opacity="0.2" d="M437.299 8.91431H436.328V399.722H437.299V8.91431Z" fill="white"/>
<path opacity="0.2" d="M456.866 8.91431H455.895V399.722H456.866V8.91431Z" fill="white"/>
<path opacity="0.2" d="M476.405 8.91431H475.434V399.722H476.405V8.91431Z" fill="white"/>
<path opacity="0.5" d="M495.944 8.91431H494.973V399.722H495.944V8.91431Z" fill="white"/>
<path opacity="0.5" d="M788.085 8.91431H398.25V9.8857H788.085V8.91431Z" fill="white"/>
<path opacity="0.2" d="M788.558 27.9816H397.75V28.953H788.558V27.9816Z" fill="white"/>
<path opacity="0.2" d="M788.558 47.5203H397.75V48.4917H788.558V47.5203Z" fill="white"/>
<path opacity="0.2" d="M788.558 67.0593H397.75V68.0307H788.558V67.0593Z" fill="white"/>
<path opacity="0.2" d="M788.558 86.5985H397.75V87.5699H788.558V86.5985Z" fill="white"/>
<path opacity="0.5" d="M788.558 106.137H397.75V107.108H788.558V106.137Z" fill="white"/>
<path opacity="0.2" d="M788.558 125.676H397.75V126.648H788.558V125.676Z" fill="white"/>
<path opacity="0.2" d="M788.558 145.215H397.75V146.187H788.558V145.215Z" fill="white"/>
<path opacity="0.2" d="M788.558 164.754H397.75V165.726H788.558V164.754Z" fill="white"/>
<path opacity="0.2" d="M788.558 184.293H397.75V185.265H788.558V184.293Z" fill="white"/>
<path opacity="0.5" d="M788.558 203.832H397.75V204.804H788.558V203.832Z" fill="white"/>
<path opacity="0.2" d="M788.558 223.371H397.75V224.342H788.558V223.371Z" fill="white"/>
<path opacity="0.2" d="M788.558 242.91H397.75V243.882H788.558V242.91Z" fill="white"/>
<path opacity="0.2" d="M788.558 262.449H397.75V263.421H788.558V262.449Z" fill="white"/>
<path opacity="0.2" d="M788.558 281.988H397.75V282.959H788.558V281.988Z" fill="white"/>
<path opacity="0.5" d="M788.558 301.527H397.75V302.498H788.558V301.527Z" fill="white"/>
<path opacity="0.2" d="M788.558 321.094H397.75V322.065H788.558V321.094Z" fill="white"/>
<path opacity="0.2" d="M788.558 340.633H397.75V341.604H788.558V340.633Z" fill="white"/>
<path opacity="0.2" d="M788.558 360.172H397.75V361.143H788.558V360.172Z" fill="white"/>
<path opacity="0.2" d="M788.558 379.711H397.75V380.682H788.558V379.711Z" fill="white"/>
<path opacity="0.5" d="M788.085 398.75H398.25V399.722H788.085V398.75Z" fill="white"/>
<path d="M398.721 6H397.75V12.8275H398.721V6Z" fill="white"/>
<path d="M401.663 8.91431H394.836V9.8857H401.663V8.91431Z" fill="white"/>
<path d="M398.721 103.445H397.75V110.273H398.721V103.445Z" fill="white"/>
<path d="M401.663 106.387H394.836V107.358H401.663V106.387Z" fill="white"/>
<path d="M398.721 200.918H397.75V207.746H398.721V200.918Z" fill="white"/>
<path d="M401.663 203.832H394.836V204.804H401.663V203.832Z" fill="white"/>
<path d="M398.721 298.363H397.75V305.191H398.721V298.363Z" fill="white"/>
<path d="M401.663 301.305H394.836V302.277H401.663V301.305Z" fill="white"/>
<path d="M398.721 395.836H397.75V402.663H398.721V395.836Z" fill="white"/>
<path d="M401.663 398.75H394.836V399.722H401.663V398.75Z" fill="white"/>
<path d="M496.166 6H495.195V12.8275H496.166V6Z" fill="white"/>
<path d="M499.108 8.91431H492.281V9.8857H499.108V8.91431Z" fill="white"/>
<path d="M496.166 103.445H495.195V110.273H496.166V103.445Z" fill="white"/>
<path d="M499.108 106.387H492.281V107.358H499.108V106.387Z" fill="white"/>
<path d="M496.166 200.918H495.195V207.746H496.166V200.918Z" fill="white"/>
<path d="M499.108 203.832H492.281V204.804H499.108V203.832Z" fill="white"/>
<path d="M496.166 298.363H495.195V305.191H496.166V298.363Z" fill="white"/>
<path d="M499.108 301.305H492.281V302.277H499.108V301.305Z" fill="white"/>
<path d="M496.166 395.836H495.195V402.663H496.166V395.836Z" fill="white"/>
<path d="M499.108 398.75H492.281V399.722H499.108V398.75Z" fill="white"/>
<path d="M447.458 57.6505H446.486V58.6219H447.458V57.6505Z" fill="white"/>
<path d="M447.458 155.124H446.486V156.095H447.458V155.124Z" fill="white"/>
<path d="M447.458 252.568H446.486V253.54H447.458V252.568Z" fill="white"/>
<path d="M447.458 350.014H446.486V350.985H447.458V350.014Z" fill="white"/>
<path opacity="0.5" d="M8.88588 398.75H7.91455V788.586H8.88588V398.75Z" fill="white"/>
<path opacity="0.2" d="M27.9528 398.279H26.9814V789.086H27.9528V398.279Z" fill="white"/>
<path opacity="0.2" d="M47.4923 398.279H46.521V789.086H47.4923V398.279Z" fill="white"/>
<path opacity="0.2" d="M67.0304 398.279H66.0591V789.086H67.0304V398.279Z" fill="white"/>
<path opacity="0.2" d="M86.5695 398.279H85.5981V789.086H86.5695V398.279Z" fill="white"/>
<path opacity="0.5" d="M106.109 398.279H105.137V789.086H106.109V398.279Z" fill="white"/>
<path opacity="0.2" d="M125.648 398.279H124.676V789.086H125.648V398.279Z" fill="white"/>
<path opacity="0.2" d="M145.187 398.279H144.215V789.086H145.187V398.279Z" fill="white"/>
<path opacity="0.2" d="M164.726 398.279H163.754V789.086H164.726V398.279Z" fill="white"/>
<path opacity="0.2" d="M184.265 398.279H183.293V789.086H184.265V398.279Z" fill="white"/>
<path opacity="0.5" d="M203.804 398.279H202.833V789.086H203.804V398.279Z" fill="white"/>
<path opacity="0.2" d="M223.343 398.279H222.372V789.086H223.343V398.279Z" fill="white"/>
<path opacity="0.2" d="M242.882 398.279H241.91V789.086H242.882V398.279Z" fill="white"/>
<path opacity="0.2" d="M262.421 398.279H261.449V789.086H262.421V398.279Z" fill="white"/>
<path opacity="0.2" d="M281.959 398.279H280.988V789.086H281.959V398.279Z" fill="white"/>
<path opacity="0.5" d="M301.499 398.279H300.527V789.086H301.499V398.279Z" fill="white"/>
<path opacity="0.2" d="M321.037 398.279H320.066V789.086H321.037V398.279Z" fill="white"/>
<path opacity="0.2" d="M340.576 398.279H339.605V789.086H340.576V398.279Z" fill="white"/>
<path opacity="0.2" d="M360.116 398.279H359.144V789.086H360.116V398.279Z" fill="white"/>
<path opacity="0.2" d="M379.654 398.279H378.683V789.086H379.654V398.279Z" fill="white"/>
<path opacity="0.5" d="M398.722 398.75H397.75V788.586H398.722V398.75Z" fill="white"/>
<path opacity="0.5" d="M398.25 398.279H8.41357V399.25H398.25V398.279Z" fill="white"/>
<path opacity="0.2" d="M398.722 417.318H7.91455V418.289H398.722V417.318Z" fill="white"/>
<path opacity="0.2" d="M398.722 436.857H7.91455V437.828H398.722V436.857Z" fill="white"/>
<path opacity="0.2" d="M398.722 456.396H7.91455V457.367H398.722V456.396Z" fill="white"/>
<path opacity="0.2" d="M398.722 475.935H7.91455V476.906H398.722V475.935Z" fill="white"/>
<path opacity="0.5" d="M398.722 495.474H7.91455V496.445H398.722V495.474Z" fill="white"/>
<path opacity="0.2" d="M398.722 515.013H7.91455V515.984H398.722V515.013Z" fill="white"/>
<path opacity="0.2" d="M398.722 534.552H7.91455V535.523H398.722V534.552Z" fill="white"/>
<path opacity="0.2" d="M398.722 554.09H7.91455V555.062H398.722V554.09Z" fill="white"/>
<path opacity="0.2" d="M398.722 573.63H7.91455V574.601H398.722V573.63Z" fill="white"/>
<path opacity="0.5" d="M398.722 593.169H7.91455V594.14H398.722V593.169Z" fill="white"/>
<path opacity="0.2" d="M398.722 612.735H7.91455V613.707H398.722V612.735Z" fill="white"/>
<path opacity="0.2" d="M398.722 632.274H7.91455V633.246H398.722V632.274Z" fill="white"/>
<path opacity="0.2" d="M398.722 651.813H7.91455V652.785H398.722V651.813Z" fill="white"/>
<path opacity="0.2" d="M398.722 671.352H7.91455V672.324H398.722V671.352Z" fill="white"/>
<path opacity="0.5" d="M398.722 690.891H7.91455V691.863H398.722V690.891Z" fill="white"/>
<path opacity="0.2" d="M398.722 710.43H7.91455V711.402H398.722V710.43Z" fill="white"/>
<path opacity="0.2" d="M398.722 729.969H7.91455V730.941H398.722V729.969Z" fill="white"/>
<path opacity="0.2" d="M398.722 749.508H7.91455V750.48H398.722V749.508Z" fill="white"/>
<path opacity="0.2" d="M398.722 769.047H7.91455V770.019H398.722V769.047Z" fill="white"/>
<path opacity="0.5" d="M398.25 788.087H8.41357V789.058H398.25V788.087Z" fill="white"/>
<path d="M8.88588 395.336H7.91455V402.164H8.88588V395.336Z" fill="white"/>
<path d="M11.8278 398.279H5V399.25H11.8278V398.279Z" fill="white"/>
<path d="M398.721 395.336H397.75V402.164H398.721V395.336Z" fill="white"/>
<path d="M401.663 398.279H394.836V399.25H401.663V398.279Z" fill="white"/>
<path d="M8.88588 492.809H7.91455V499.637H8.88588V492.809Z" fill="white"/>
<path d="M11.8278 495.724H5V496.695H11.8278V495.724Z" fill="white"/>
<path d="M398.721 492.809H397.75V499.637H398.721V492.809Z" fill="white"/>
<path d="M401.663 495.724H394.836V496.695H401.663V495.724Z" fill="white"/>
<path d="M8.88588 590.254H7.91455V597.082H8.88588V590.254Z" fill="white"/>
<path d="M11.8278 593.197H5V594.168H11.8278V593.197Z" fill="white"/>
<path d="M398.721 590.254H397.75V597.082H398.721V590.254Z" fill="white"/>
<path d="M401.663 593.197H394.836V594.168H401.663V593.197Z" fill="white"/>
<path d="M8.88588 687.727H7.91455V694.555H8.88588V687.727Z" fill="white"/>
<path d="M11.8278 690.641H5V691.613H11.8278V690.641Z" fill="white"/>
<path d="M398.721 687.727H397.75V694.555H398.721V687.727Z" fill="white"/>
<path d="M401.663 690.641H394.836V691.613H401.663V690.641Z" fill="white"/>
<path d="M8.88588 785.172H7.91455V792H8.88588V785.172Z" fill="white"/>
<path d="M11.8278 788.087H5V789.058H11.8278V788.087Z" fill="white"/>
<path d="M106.358 395.336H105.387V402.164H106.358V395.336Z" fill="white"/>
<path d="M109.273 398.279H102.445V399.25H109.273V398.279Z" fill="white"/>
<path d="M106.358 492.809H105.387V499.637H106.358V492.809Z" fill="white"/>
<path d="M109.273 495.724H102.445V496.695H109.273V495.724Z" fill="white"/>
<path d="M106.358 590.254H105.387V597.082H106.358V590.254Z" fill="white"/>
<path d="M109.273 593.197H102.445V594.168H109.273V593.197Z" fill="white"/>
<path d="M106.358 687.727H105.387V694.555H106.358V687.727Z" fill="white"/>
<path d="M109.273 690.641H102.445V691.613H109.273V690.641Z" fill="white"/>
<path d="M106.358 785.172H105.387V792H106.358V785.172Z" fill="white"/>
<path d="M109.273 788.087H102.445V789.058H109.273V788.087Z" fill="white"/>
<path d="M203.804 395.336H202.833V402.164H203.804V395.336Z" fill="white"/>
<path d="M206.746 398.279H199.918V399.25H206.746V398.279Z" fill="white"/>
<path d="M203.804 492.809H202.833V499.637H203.804V492.809Z" fill="white"/>
<path d="M206.746 495.724H199.918V496.695H206.746V495.724Z" fill="white"/>
<path d="M203.804 590.254H202.833V597.082H203.804V590.254Z" fill="white"/>
<path d="M206.746 593.197H199.918V594.168H206.746V593.197Z" fill="white"/>
<path d="M203.804 687.727H202.833V694.555H203.804V687.727Z" fill="white"/>
<path d="M206.746 690.641H199.918V691.613H206.746V690.641Z" fill="white"/>
<path d="M203.804 785.172H202.833V792H203.804V785.172Z" fill="white"/>
<path d="M206.746 788.087H199.918V789.058H206.746V788.087Z" fill="white"/>
<path d="M301.277 395.336H300.306V402.164H301.277V395.336Z" fill="white"/>
<path d="M304.192 398.279H297.364V399.25H304.192V398.279Z" fill="white"/>
<path d="M301.277 492.809H300.306V499.637H301.277V492.809Z" fill="white"/>
<path d="M304.192 495.724H297.364V496.695H304.192V495.724Z" fill="white"/>
<path d="M301.277 590.254H300.306V597.082H301.277V590.254Z" fill="white"/>
<path d="M304.192 593.197H297.364V594.168H304.192V593.197Z" fill="white"/>
<path d="M301.277 687.727H300.306V694.555H301.277V687.727Z" fill="white"/>
<path d="M304.192 690.641H297.364V691.613H304.192V690.641Z" fill="white"/>
<path d="M301.277 785.172H300.306V792H301.277V785.172Z" fill="white"/>
<path d="M304.192 788.087H297.364V789.058H304.192V788.087Z" fill="white"/>
<path d="M398.721 785.172H397.75V792H398.721V785.172Z" fill="white"/>
<path d="M401.663 788.087H394.836V789.058H401.663V788.087Z" fill="white"/>
<path d="M57.6221 446.987H56.6504V447.958H57.6221V446.987Z" fill="white"/>
<path d="M155.067 446.987H154.096V447.958H155.067V446.987Z" fill="white"/>
<path d="M252.54 446.987H251.569V447.958H252.54V446.987Z" fill="white"/>
<path d="M349.985 446.987H349.014V447.958H349.985V446.987Z" fill="white"/>
<path d="M57.6221 544.46H56.6504V545.431H57.6221V544.46Z" fill="white"/>
<path d="M155.067 544.46H154.096V545.431H155.067V544.46Z" fill="white"/>
<path d="M252.54 544.46H251.569V545.431H252.54V544.46Z" fill="white"/>
<path d="M349.985 544.46H349.014V545.431H349.985V544.46Z" fill="white"/>
<path d="M57.6221 641.905H56.6504V642.876H57.6221V641.905Z" fill="white"/>
<path d="M155.067 641.905H154.096V642.876H155.067V641.905Z" fill="white"/>
<path d="M252.54 641.905H251.569V642.876H252.54V641.905Z" fill="white"/>
<path d="M349.985 641.905H349.014V642.876H349.985V641.905Z" fill="white"/>
<path d="M57.6221 739.378H56.6504V740.349H57.6221V739.378Z" fill="white"/>
<path d="M155.067 739.378H154.096V740.349H155.067V739.378Z" fill="white"/>
<path d="M252.54 739.378H251.569V740.349H252.54V739.378Z" fill="white"/>
<path d="M349.985 739.378H349.014V740.349H349.985V739.378Z" fill="white"/>
<path opacity="0.5" d="M398.721 398.75H397.75V788.586H398.721V398.75Z" fill="white"/>
<path opacity="0.2" d="M417.761 398.279H416.79V789.086H417.761V398.279Z" fill="white"/>
<path opacity="0.2" d="M437.299 398.279H436.328V789.086H437.299V398.279Z" fill="white"/>
<path opacity="0.2" d="M456.866 398.279H455.895V789.086H456.866V398.279Z" fill="white"/>
<path opacity="0.2" d="M476.405 398.279H475.434V789.086H476.405V398.279Z" fill="white"/>
<path opacity="0.5" d="M495.944 398.279H494.973V789.086H495.944V398.279Z" fill="white"/>
<path opacity="0.5" d="M788.085 398.279H398.25V399.25H788.085V398.279Z" fill="white"/>
<path opacity="0.2" d="M788.558 417.318H397.75V418.289H788.558V417.318Z" fill="white"/>
<path opacity="0.2" d="M788.558 436.857H397.75V437.828H788.558V436.857Z" fill="white"/>
<path opacity="0.2" d="M788.558 456.396H397.75V457.367H788.558V456.396Z" fill="white"/>
<path opacity="0.2" d="M788.558 475.935H397.75V476.906H788.558V475.935Z" fill="white"/>
<path opacity="0.5" d="M788.558 495.474H397.75V496.445H788.558V495.474Z" fill="white"/>
<path opacity="0.2" d="M788.558 515.013H397.75V515.984H788.558V515.013Z" fill="white"/>
<path opacity="0.2" d="M788.558 534.552H397.75V535.523H788.558V534.552Z" fill="white"/>
<path opacity="0.2" d="M788.558 554.09H397.75V555.062H788.558V554.09Z" fill="white"/>
<path opacity="0.2" d="M788.558 573.63H397.75V574.601H788.558V573.63Z" fill="white"/>
<path opacity="0.5" d="M788.558 593.169H397.75V594.14H788.558V593.169Z" fill="white"/>
<path opacity="0.2" d="M788.558 612.735H397.75V613.707H788.558V612.735Z" fill="white"/>
<path opacity="0.2" d="M788.558 632.274H397.75V633.246H788.558V632.274Z" fill="white"/>
<path opacity="0.2" d="M788.558 651.813H397.75V652.785H788.558V651.813Z" fill="white"/>
<path opacity="0.2" d="M788.558 671.352H397.75V672.324H788.558V671.352Z" fill="white"/>
<path opacity="0.5" d="M788.558 690.891H397.75V691.863H788.558V690.891Z" fill="white"/>
<path opacity="0.2" d="M788.558 710.43H397.75V711.402H788.558V710.43Z" fill="white"/>
<path opacity="0.2" d="M788.558 729.969H397.75V730.941H788.558V729.969Z" fill="white"/>
<path opacity="0.2" d="M788.558 749.508H397.75V750.48H788.558V749.508Z" fill="white"/>
<path opacity="0.2" d="M788.558 769.047H397.75V770.019H788.558V769.047Z" fill="white"/>
<path opacity="0.5" d="M788.085 788.087H398.25V789.058H788.085V788.087Z" fill="white"/>
<path d="M398.721 395.336H397.75V402.164H398.721V395.336Z" fill="white"/>
<path d="M401.663 398.279H394.836V399.25H401.663V398.279Z" fill="white"/>
<path d="M398.721 492.809H397.75V499.637H398.721V492.809Z" fill="white"/>
<path d="M401.663 495.724H394.836V496.695H401.663V495.724Z" fill="white"/>
<path d="M398.721 590.254H397.75V597.082H398.721V590.254Z" fill="white"/>
<path d="M401.663 593.197H394.836V594.168H401.663V593.197Z" fill="white"/>
<path d="M398.721 687.727H397.75V694.555H398.721V687.727Z" fill="white"/>
<path d="M401.663 690.641H394.836V691.613H401.663V690.641Z" fill="white"/>
<path d="M398.721 785.172H397.75V792H398.721V785.172Z" fill="white"/>
<path d="M401.663 788.087H394.836V789.058H401.663V788.087Z" fill="white"/>
<path d="M496.166 395.336H495.195V402.164H496.166V395.336Z" fill="white"/>
<path d="M499.108 398.279H492.281V399.25H499.108V398.279Z" fill="white"/>
<path d="M496.166 492.809H495.195V499.637H496.166V492.809Z" fill="white"/>
<path d="M499.108 495.724H492.281V496.695H499.108V495.724Z" fill="white"/>
<path d="M496.166 590.254H495.195V597.082H496.166V590.254Z" fill="white"/>
<path d="M499.108 593.197H492.281V594.168H499.108V593.197Z" fill="white"/>
<path d="M496.166 687.727H495.195V694.555H496.166V687.727Z" fill="white"/>
<path d="M499.108 690.641H492.281V691.613H499.108V690.641Z" fill="white"/>
<path d="M496.166 785.172H495.195V792H496.166V785.172Z" fill="white"/>
<path d="M499.108 788.087H492.281V789.058H499.108V788.087Z" fill="white"/>
<path d="M447.458 446.987H446.486V447.958H447.458V446.987Z" fill="white"/>
<path d="M447.458 544.46H446.486V545.431H447.458V544.46Z" fill="white"/>
<path d="M447.458 641.905H446.486V642.876H447.458V641.905Z" fill="white"/>
<path d="M447.458 739.378H446.486V740.349H447.458V739.378Z" fill="white"/>
</g>
</g>
<rect x="2.5" y="2.5" width="509" height="792" rx="18.5" stroke="#FFA0DA" stroke-width="5"/>
</g>
<defs>
<filter id="filter0_i_237_172" x="0" y="0" width="514" height="799" filterUnits="userSpaceOnUse" color-interpolation-filters="sRGB">
<feFlood flood-opacity="0" result="BackgroundImageFix"/>
<feBlend mode="normal" in="SourceGraphic" in2="BackgroundImageFix" result="shape"/>
<feColorMatrix in="SourceAlpha" type="matrix" values="0 0 0 0 0 0 0 0 0 0 0 0 0 0 0 0 0 0 127 0" result="hardAlpha"/>
<feMorphology radius="10" operator="erode" in="SourceAlpha" result="effect1_innerShadow_237_172"/>
<feOffset dy="2"/>
<feGaussianBlur stdDeviation="7.15"/>
<feComposite in2="hardAlpha" operator="arithmetic" k2="-1" k3="1"/>
<feColorMatrix type="matrix" values="0 0 0 0 0 0 0 0 0 0 0 0 0 0 0 0 0 0 0.25 0"/>
<feBlend mode="normal" in2="shape" result="effect1_innerShadow_237_172"/>
</filter>
<radialGradient id="paint0_radial_237_172" cx="0" cy="0" r="1" gradientUnits="userSpaceOnUse" gradientTransform="translate(257 398.5) rotate(-0.618085) scale(296.57 1903.57)">
<stop offset="0.741386" stop-color="#181718"/>
<stop offset="1" stop-color="#373145"/>
</radialGradient>
<clipPath id="clip0_237_172">
<rect x="5" y="5" width="504" height="787" rx="16" fill="white"/>
</clipPath>
</defs>
</svg>
