<svg width="506" height="463" viewBox="0 0 506 463" fill="none" xmlns="http://www.w3.org/2000/svg">
<g filter="url(#filter0_i_232_153)">
<g clip-path="url(#clip0_232_153)">
<rect x="1" y="1" width="504" height="461" rx="16" fill="url(#paint0_radial_232_153)"/>
<g opacity="0.2">
<path opacity="0.5" d="M4.60377 5.16614H3.70288V366.732H4.60377V5.16614Z" fill="white"/>
<path opacity="0.2" d="M22.2883 4.703H21.3875V367.169H22.2883V4.703Z" fill="white"/>
<path opacity="0.2" d="M40.4104 4.703H39.5095V367.169H40.4104V4.703Z" fill="white"/>
<path opacity="0.2" d="M58.5322 4.703H57.6313V367.169H58.5322V4.703Z" fill="white"/>
<path opacity="0.2" d="M76.6543 4.703H75.7534V367.169H76.6543V4.703Z" fill="white"/>
<path opacity="0.5" d="M94.7766 4.703H93.8757V367.169H94.7766V4.703Z" fill="white"/>
<path opacity="0.2" d="M112.898 4.703H111.998V367.169H112.898V4.703Z" fill="white"/>
<path opacity="0.2" d="M131.021 4.703H130.12V367.169H131.021V4.703Z" fill="white"/>
<path opacity="0.2" d="M149.143 4.703H148.242V367.169H149.143V4.703Z" fill="white"/>
<path opacity="0.2" d="M167.265 4.703H166.364V367.169H167.265V4.703Z" fill="white"/>
<path opacity="0.5" d="M185.386 4.703H184.486V367.169H185.386V4.703Z" fill="white"/>
<path opacity="0.2" d="M203.509 4.703H202.608V367.169H203.509V4.703Z" fill="white"/>
<path opacity="0.2" d="M221.631 4.703H220.729V367.169H221.631V4.703Z" fill="white"/>
<path opacity="0.2" d="M239.753 4.703H238.852V367.169H239.753V4.703Z" fill="white"/>
<path opacity="0.2" d="M257.875 4.703H256.974V367.169H257.875V4.703Z" fill="white"/>
<path opacity="0.5" d="M275.997 4.703H275.096V367.169H275.997V4.703Z" fill="white"/>
<path opacity="0.2" d="M294.119 4.703H293.218V367.169H294.119V4.703Z" fill="white"/>
<path opacity="0.2" d="M312.241 4.703H311.34V367.169H312.241V4.703Z" fill="white"/>
<path opacity="0.2" d="M330.363 4.703H329.462V367.169H330.363V4.703Z" fill="white"/>
<path opacity="0.2" d="M348.485 4.703H347.584V367.169H348.485V4.703Z" fill="white"/>
<path opacity="0.5" d="M366.169 5.16614H365.268V366.732H366.169V5.16614Z" fill="white"/>
<path opacity="0.5" d="M365.732 4.703H4.16626V5.60396H365.732V4.703Z" fill="white"/>
<path opacity="0.2" d="M366.169 22.3875H3.70288V23.2884H366.169V22.3875Z" fill="white"/>
<path opacity="0.2" d="M366.169 40.5093H3.70288V41.4102H366.169V40.5093Z" fill="white"/>
<path opacity="0.2" d="M366.169 58.6313H3.70288V59.5323H366.169V58.6313Z" fill="white"/>
<path opacity="0.2" d="M366.169 76.7535H3.70288V77.6545H366.169V76.7535Z" fill="white"/>
<path opacity="0.5" d="M366.169 94.8752H3.70288V95.7762H366.169V94.8752Z" fill="white"/>
<path opacity="0.2" d="M366.169 112.997H3.70288V113.898H366.169V112.997Z" fill="white"/>
<path opacity="0.2" d="M366.169 131.12H3.70288V132.021H366.169V131.12Z" fill="white"/>
<path opacity="0.2" d="M366.169 149.241H3.70288V150.142H366.169V149.241Z" fill="white"/>
<path opacity="0.2" d="M366.169 167.364H3.70288V168.264H366.169V167.364Z" fill="white"/>
<path opacity="0.5" d="M366.169 185.486H3.70288V186.387H366.169V185.486Z" fill="white"/>
<path opacity="0.2" d="M366.169 203.607H3.70288V204.508H366.169V203.607Z" fill="white"/>
<path opacity="0.2" d="M366.169 221.73H3.70288V222.631H366.169V221.73Z" fill="white"/>
<path opacity="0.2" d="M366.169 239.852H3.70288V240.753H366.169V239.852Z" fill="white"/>
<path opacity="0.2" d="M366.169 257.974H3.70288V258.875H366.169V257.974Z" fill="white"/>
<path opacity="0.5" d="M366.169 276.096H3.70288V276.997H366.169V276.096Z" fill="white"/>
<path opacity="0.2" d="M366.169 294.244H3.70288V295.145H366.169V294.244Z" fill="white"/>
<path opacity="0.2" d="M366.169 312.365H3.70288V313.266H366.169V312.365Z" fill="white"/>
<path opacity="0.2" d="M366.169 330.488H3.70288V331.388H366.169V330.488Z" fill="white"/>
<path opacity="0.2" d="M366.169 348.61H3.70288V349.511H366.169V348.61Z" fill="white"/>
<path opacity="0.5" d="M365.732 366.268H4.16626V367.169H365.732V366.268Z" fill="white"/>
<path d="M4.60377 2H3.70288V8.33242H4.60377V2Z" fill="white"/>
<path d="M7.33263 4.703H1V5.60396H7.33263V4.703Z" fill="white"/>
<path d="M366.169 2H365.268V8.33242H366.169V2Z" fill="white"/>
<path d="M368.898 4.703H362.566V5.60396H368.898V4.703Z" fill="white"/>
<path d="M4.60377 92.3784H3.70288V98.7108H4.60377V92.3784Z" fill="white"/>
<path d="M7.33263 95.1069H1V96.0079H7.33263V95.1069Z" fill="white"/>
<path d="M366.169 92.3784H365.268V98.7108H366.169V92.3784Z" fill="white"/>
<path d="M368.898 95.1069H362.566V96.0079H368.898V95.1069Z" fill="white"/>
<path d="M4.60377 182.783H3.70288V189.115H4.60377V182.783Z" fill="white"/>
<path d="M7.33263 185.486H1V186.387H7.33263V185.486Z" fill="white"/>
<path d="M366.169 182.783H365.268V189.115H366.169V182.783Z" fill="white"/>
<path d="M368.898 185.486H362.566V186.387H368.898V185.486Z" fill="white"/>
<path d="M4.60377 273.161H3.70288V279.494H4.60377V273.161Z" fill="white"/>
<path d="M7.33263 275.89H1V276.791H7.33263V275.89Z" fill="white"/>
<path d="M366.169 273.161H365.268V279.494H366.169V273.161Z" fill="white"/>
<path d="M368.898 275.89H362.566V276.791H368.898V275.89Z" fill="white"/>
<path d="M4.60377 363.565H3.70288V369.898H4.60377V363.565Z" fill="white"/>
<path d="M7.33263 366.268H1V367.169H7.33263V366.268Z" fill="white"/>
<path d="M95.0081 2H94.1072V8.33242H95.0081V2Z" fill="white"/>
<path d="M97.711 4.703H91.3784V5.60396H97.711V4.703Z" fill="white"/>
<path d="M95.0081 92.3784H94.1072V98.7108H95.0081V92.3784Z" fill="white"/>
<path d="M97.711 95.1069H91.3784V96.0079H97.711V95.1069Z" fill="white"/>
<path d="M95.0081 182.783H94.1072V189.115H95.0081V182.783Z" fill="white"/>
<path d="M97.711 185.486H91.3784V186.387H97.711V185.486Z" fill="white"/>
<path d="M95.0081 273.161H94.1072V279.494H95.0081V273.161Z" fill="white"/>
<path d="M97.711 275.89H91.3784V276.791H97.711V275.89Z" fill="white"/>
<path d="M95.0081 363.565H94.1072V369.898H95.0081V363.565Z" fill="white"/>
<path d="M97.711 366.268H91.3784V367.169H97.711V366.268Z" fill="white"/>
<path d="M185.386 2H184.486V8.33242H185.386V2Z" fill="white"/>
<path d="M188.115 4.703H181.783V5.60396H188.115V4.703Z" fill="white"/>
<path d="M185.386 92.3784H184.486V98.7108H185.386V92.3784Z" fill="white"/>
<path d="M188.115 95.1069H181.783V96.0079H188.115V95.1069Z" fill="white"/>
<path d="M185.386 182.783H184.486V189.115H185.386V182.783Z" fill="white"/>
<path d="M188.115 185.486H181.783V186.387H188.115V185.486Z" fill="white"/>
<path d="M185.386 273.161H184.486V279.494H185.386V273.161Z" fill="white"/>
<path d="M188.115 275.89H181.783V276.791H188.115V275.89Z" fill="white"/>
<path d="M185.386 363.565H184.486V369.898H185.386V363.565Z" fill="white"/>
<path d="M188.115 366.268H181.783V367.169H188.115V366.268Z" fill="white"/>
<path d="M275.791 2H274.89V8.33242H275.791V2Z" fill="white"/>
<path d="M278.494 4.703H272.161V5.60396H278.494V4.703Z" fill="white"/>
<path d="M275.791 92.3784H274.89V98.7108H275.791V92.3784Z" fill="white"/>
<path d="M278.494 95.1069H272.161V96.0079H278.494V95.1069Z" fill="white"/>
<path d="M275.791 182.783H274.89V189.115H275.791V182.783Z" fill="white"/>
<path d="M278.494 185.486H272.161V186.387H278.494V185.486Z" fill="white"/>
<path d="M275.791 273.161H274.89V279.494H275.791V273.161Z" fill="white"/>
<path d="M278.494 275.89H272.161V276.791H278.494V275.89Z" fill="white"/>
<path d="M275.791 363.565H274.89V369.898H275.791V363.565Z" fill="white"/>
<path d="M278.494 366.268H272.161V367.169H278.494V366.268Z" fill="white"/>
<path d="M366.169 363.565H365.268V369.898H366.169V363.565Z" fill="white"/>
<path d="M368.898 366.268H362.566V367.169H368.898V366.268Z" fill="white"/>
<path d="M49.8062 49.9049H48.905V50.8059H49.8062V49.9049Z" fill="white"/>
<path d="M140.185 49.9049H139.283V50.8059H140.185V49.9049Z" fill="white"/>
<path d="M230.589 49.9049H229.688V50.8059H230.589V49.9049Z" fill="white"/>
<path d="M320.967 49.9049H320.066V50.8059H320.967V49.9049Z" fill="white"/>
<path d="M49.8062 140.309H48.905V141.21H49.8062V140.309Z" fill="white"/>
<path d="M140.185 140.309H139.283V141.21H140.185V140.309Z" fill="white"/>
<path d="M230.589 140.309H229.688V141.21H230.589V140.309Z" fill="white"/>
<path d="M320.967 140.309H320.066V141.21H320.967V140.309Z" fill="white"/>
<path d="M49.8062 230.688H48.905V231.589H49.8062V230.688Z" fill="white"/>
<path d="M140.185 230.688H139.283V231.589H140.185V230.688Z" fill="white"/>
<path d="M230.589 230.688H229.688V231.589H230.589V230.688Z" fill="white"/>
<path d="M320.967 230.688H320.066V231.589H320.967V230.688Z" fill="white"/>
<path d="M49.8062 321.066H48.905V321.967H49.8062V321.066Z" fill="white"/>
<path d="M140.185 321.066H139.283V321.967H140.185V321.066Z" fill="white"/>
<path d="M230.589 321.066H229.688V321.967H230.589V321.066Z" fill="white"/>
<path d="M320.967 321.066H320.066V321.967H320.967V321.066Z" fill="white"/>
<path opacity="0.5" d="M366.169 5.16614H365.268V366.732H366.169V5.16614Z" fill="white"/>
<path opacity="0.2" d="M383.828 4.703H382.927V367.169H383.828V4.703Z" fill="white"/>
<path opacity="0.2" d="M401.95 4.703H401.049V367.169H401.95V4.703Z" fill="white"/>
<path opacity="0.2" d="M420.098 4.703H419.197V367.169H420.098V4.703Z" fill="white"/>
<path opacity="0.2" d="M438.22 4.703H437.319V367.169H438.22V4.703Z" fill="white"/>
<path opacity="0.5" d="M456.342 4.703H455.441V367.169H456.342V4.703Z" fill="white"/>
<path opacity="0.2" d="M474.464 4.703H473.563V367.169H474.464V4.703Z" fill="white"/>
<path opacity="0.2" d="M492.586 4.703H491.685V367.169H492.586V4.703Z" fill="white"/>
<path opacity="0.5" d="M727.297 4.703H365.732V5.60396H727.297V4.703Z" fill="white"/>
<path opacity="0.2" d="M727.735 22.3875H365.268V23.2884H727.735V22.3875Z" fill="white"/>
<path opacity="0.2" d="M727.735 40.5093H365.268V41.4102H727.735V40.5093Z" fill="white"/>
<path opacity="0.2" d="M727.735 58.6313H365.268V59.5323H727.735V58.6313Z" fill="white"/>
<path opacity="0.2" d="M727.735 76.7535H365.268V77.6545H727.735V76.7535Z" fill="white"/>
<path opacity="0.5" d="M727.735 94.8752H365.268V95.7762H727.735V94.8752Z" fill="white"/>
<path opacity="0.2" d="M727.735 112.997H365.268V113.898H727.735V112.997Z" fill="white"/>
<path opacity="0.2" d="M727.735 131.12H365.268V132.021H727.735V131.12Z" fill="white"/>
<path opacity="0.2" d="M727.735 149.241H365.268V150.142H727.735V149.241Z" fill="white"/>
<path opacity="0.2" d="M727.735 167.364H365.268V168.264H727.735V167.364Z" fill="white"/>
<path opacity="0.5" d="M727.735 185.486H365.268V186.387H727.735V185.486Z" fill="white"/>
<path opacity="0.2" d="M727.735 203.607H365.268V204.508H727.735V203.607Z" fill="white"/>
<path opacity="0.2" d="M727.735 221.73H365.268V222.631H727.735V221.73Z" fill="white"/>
<path opacity="0.2" d="M727.735 239.852H365.268V240.753H727.735V239.852Z" fill="white"/>
<path opacity="0.2" d="M727.735 257.974H365.268V258.875H727.735V257.974Z" fill="white"/>
<path opacity="0.5" d="M727.735 276.096H365.268V276.997H727.735V276.096Z" fill="white"/>
<path opacity="0.2" d="M727.735 294.244H365.268V295.145H727.735V294.244Z" fill="white"/>
<path opacity="0.2" d="M727.735 312.365H365.268V313.266H727.735V312.365Z" fill="white"/>
<path opacity="0.2" d="M727.735 330.488H365.268V331.388H727.735V330.488Z" fill="white"/>
<path opacity="0.2" d="M727.735 348.61H365.268V349.511H727.735V348.61Z" fill="white"/>
<path opacity="0.5" d="M727.297 366.268H365.732V367.169H727.297V366.268Z" fill="white"/>
<path d="M366.169 2H365.268V8.33242H366.169V2Z" fill="white"/>
<path d="M368.898 4.703H362.566V5.60396H368.898V4.703Z" fill="white"/>
<path d="M366.169 92.3784H365.268V98.7108H366.169V92.3784Z" fill="white"/>
<path d="M368.898 95.1069H362.566V96.0079H368.898V95.1069Z" fill="white"/>
<path d="M366.169 182.783H365.268V189.115H366.169V182.783Z" fill="white"/>
<path d="M368.898 185.486H362.566V186.387H368.898V185.486Z" fill="white"/>
<path d="M366.169 273.161H365.268V279.494H366.169V273.161Z" fill="white"/>
<path d="M368.898 275.89H362.566V276.791H368.898V275.89Z" fill="white"/>
<path d="M366.169 363.565H365.268V369.898H366.169V363.565Z" fill="white"/>
<path d="M368.898 366.268H362.566V367.169H368.898V366.268Z" fill="white"/>
<path d="M456.548 2H455.647V8.33242H456.548V2Z" fill="white"/>
<path d="M459.276 4.703H452.944V5.60396H459.276V4.703Z" fill="white"/>
<path d="M456.548 92.3784H455.647V98.7108H456.548V92.3784Z" fill="white"/>
<path d="M459.276 95.1069H452.944V96.0079H459.276V95.1069Z" fill="white"/>
<path d="M456.548 182.783H455.647V189.115H456.548V182.783Z" fill="white"/>
<path d="M459.276 185.486H452.944V186.387H459.276V185.486Z" fill="white"/>
<path d="M456.548 273.161H455.647V279.494H456.548V273.161Z" fill="white"/>
<path d="M459.276 275.89H452.944V276.791H459.276V275.89Z" fill="white"/>
<path d="M456.548 363.565H455.647V369.898H456.548V363.565Z" fill="white"/>
<path d="M459.276 366.268H452.944V367.169H459.276V366.268Z" fill="white"/>
<path d="M411.372 49.9049H410.471V50.8059H411.372V49.9049Z" fill="white"/>
<path d="M501.75 49.9049H500.849V50.8059H501.75V49.9049Z" fill="white"/>
<path d="M411.372 140.309H410.471V141.21H411.372V140.309Z" fill="white"/>
<path d="M501.75 140.309H500.849V141.21H501.75V140.309Z" fill="white"/>
<path d="M411.372 230.688H410.471V231.589H411.372V230.688Z" fill="white"/>
<path d="M501.75 230.688H500.849V231.589H501.75V230.688Z" fill="white"/>
<path d="M411.372 321.066H410.471V321.967H411.372V321.066Z" fill="white"/>
<path d="M501.75 321.066H500.849V321.967H501.75V321.066Z" fill="white"/>
<path opacity="0.5" d="M4.60377 366.268H3.70288V727.834H4.60377V366.268Z" fill="white"/>
<path opacity="0.2" d="M22.2883 365.831H21.3875V728.297H22.2883V365.831Z" fill="white"/>
<path opacity="0.2" d="M40.4104 365.831H39.5095V728.297H40.4104V365.831Z" fill="white"/>
<path opacity="0.2" d="M58.5322 365.831H57.6313V728.297H58.5322V365.831Z" fill="white"/>
<path opacity="0.2" d="M76.6543 365.831H75.7534V728.297H76.6543V365.831Z" fill="white"/>
<path opacity="0.5" d="M94.7766 365.831H93.8757V728.297H94.7766V365.831Z" fill="white"/>
<path opacity="0.2" d="M112.898 365.831H111.998V728.297H112.898V365.831Z" fill="white"/>
<path opacity="0.2" d="M131.021 365.831H130.12V728.297H131.021V365.831Z" fill="white"/>
<path opacity="0.2" d="M149.143 365.831H148.242V728.297H149.143V365.831Z" fill="white"/>
<path opacity="0.2" d="M167.265 365.831H166.364V728.297H167.265V365.831Z" fill="white"/>
<path opacity="0.5" d="M185.386 365.831H184.486V728.297H185.386V365.831Z" fill="white"/>
<path opacity="0.2" d="M203.509 365.831H202.608V728.297H203.509V365.831Z" fill="white"/>
<path opacity="0.2" d="M221.631 365.831H220.729V728.297H221.631V365.831Z" fill="white"/>
<path opacity="0.2" d="M239.753 365.831H238.852V728.297H239.753V365.831Z" fill="white"/>
<path opacity="0.2" d="M257.875 365.831H256.974V728.297H257.875V365.831Z" fill="white"/>
<path opacity="0.5" d="M275.997 365.831H275.096V728.297H275.997V365.831Z" fill="white"/>
<path opacity="0.2" d="M294.119 365.831H293.218V728.297H294.119V365.831Z" fill="white"/>
<path opacity="0.2" d="M312.241 365.831H311.34V728.297H312.241V365.831Z" fill="white"/>
<path opacity="0.2" d="M330.363 365.831H329.462V728.297H330.363V365.831Z" fill="white"/>
<path opacity="0.2" d="M348.485 365.831H347.584V728.297H348.485V365.831Z" fill="white"/>
<path opacity="0.5" d="M366.169 366.268H365.268V727.834H366.169V366.268Z" fill="white"/>
<path opacity="0.5" d="M365.732 365.831H4.16626V366.732H365.732V365.831Z" fill="white"/>
<path opacity="0.2" d="M366.169 383.49H3.70288V384.391H366.169V383.49Z" fill="white"/>
<path opacity="0.2" d="M366.169 401.611H3.70288V402.512H366.169V401.611Z" fill="white"/>
<path opacity="0.2" d="M366.169 419.734H3.70288V420.634H366.169V419.734Z" fill="white"/>
<path opacity="0.2" d="M366.169 437.856H3.70288V438.757H366.169V437.856Z" fill="white"/>
<path opacity="0.5" d="M366.169 455.978H3.70288V456.879H366.169V455.978Z" fill="white"/>
<path d="M4.60377 363.102H3.70288V369.435H4.60377V363.102Z" fill="white"/>
<path d="M7.33263 365.831H1V366.732H7.33263V365.831Z" fill="white"/>
<path d="M366.169 363.102H365.268V369.435H366.169V363.102Z" fill="white"/>
<path d="M368.898 365.831H362.566V366.732H368.898V365.831Z" fill="white"/>
<path d="M4.60377 453.506H3.70288V459.839H4.60377V453.506Z" fill="white"/>
<path d="M7.33263 456.209H1V457.11H7.33263V456.209Z" fill="white"/>
<path d="M366.169 453.506H365.268V459.839H366.169V453.506Z" fill="white"/>
<path d="M368.898 456.209H362.566V457.11H368.898V456.209Z" fill="white"/>
<path d="M95.0081 363.102H94.1072V369.435H95.0081V363.102Z" fill="white"/>
<path d="M97.711 365.831H91.3784V366.732H97.711V365.831Z" fill="white"/>
<path d="M95.0081 453.506H94.1072V459.839H95.0081V453.506Z" fill="white"/>
<path d="M97.711 456.209H91.3784V457.11H97.711V456.209Z" fill="white"/>
<path d="M185.386 363.102H184.486V369.435H185.386V363.102Z" fill="white"/>
<path d="M188.115 365.831H181.783V366.732H188.115V365.831Z" fill="white"/>
<path d="M185.386 453.506H184.486V459.839H185.386V453.506Z" fill="white"/>
<path d="M188.115 456.209H181.783V457.11H188.115V456.209Z" fill="white"/>
<path d="M275.791 363.102H274.89V369.435H275.791V363.102Z" fill="white"/>
<path d="M278.494 365.831H272.161V366.732H278.494V365.831Z" fill="white"/>
<path d="M275.791 453.506H274.89V459.839H275.791V453.506Z" fill="white"/>
<path d="M278.494 456.209H272.161V457.11H278.494V456.209Z" fill="white"/>
<path d="M49.8062 411.007H48.905V411.908H49.8062V411.007Z" fill="white"/>
<path d="M140.185 411.007H139.283V411.908H140.185V411.007Z" fill="white"/>
<path d="M230.589 411.007H229.688V411.908H230.589V411.007Z" fill="white"/>
<path d="M320.967 411.007H320.066V411.908H320.967V411.007Z" fill="white"/>
<path opacity="0.5" d="M366.169 366.268H365.268V727.834H366.169V366.268Z" fill="white"/>
<path opacity="0.2" d="M383.828 365.831H382.927V728.297H383.828V365.831Z" fill="white"/>
<path opacity="0.2" d="M401.95 365.831H401.049V728.297H401.95V365.831Z" fill="white"/>
<path opacity="0.2" d="M420.098 365.831H419.197V728.297H420.098V365.831Z" fill="white"/>
<path opacity="0.2" d="M438.22 365.831H437.319V728.297H438.22V365.831Z" fill="white"/>
<path opacity="0.5" d="M456.342 365.831H455.441V728.297H456.342V365.831Z" fill="white"/>
<path opacity="0.2" d="M474.464 365.831H473.563V728.297H474.464V365.831Z" fill="white"/>
<path opacity="0.2" d="M492.586 365.831H491.685V728.297H492.586V365.831Z" fill="white"/>
<path opacity="0.5" d="M727.297 365.831H365.732V366.732H727.297V365.831Z" fill="white"/>
<path opacity="0.2" d="M727.735 383.49H365.268V384.391H727.735V383.49Z" fill="white"/>
<path opacity="0.2" d="M727.735 401.611H365.268V402.512H727.735V401.611Z" fill="white"/>
<path opacity="0.2" d="M727.735 419.734H365.268V420.634H727.735V419.734Z" fill="white"/>
<path opacity="0.2" d="M727.735 437.856H365.268V438.757H727.735V437.856Z" fill="white"/>
<path opacity="0.5" d="M727.735 455.978H365.268V456.879H727.735V455.978Z" fill="white"/>
<path d="M366.169 363.102H365.268V369.435H366.169V363.102Z" fill="white"/>
<path d="M368.898 365.831H362.566V366.732H368.898V365.831Z" fill="white"/>
<path d="M366.169 453.506H365.268V459.839H366.169V453.506Z" fill="white"/>
<path d="M368.898 456.209H362.566V457.11H368.898V456.209Z" fill="white"/>
<path d="M456.548 363.102H455.647V369.435H456.548V363.102Z" fill="white"/>
<path d="M459.276 365.831H452.944V366.732H459.276V365.831Z" fill="white"/>
<path d="M456.548 453.506H455.647V459.839H456.548V453.506Z" fill="white"/>
<path d="M459.276 456.209H452.944V457.11H459.276V456.209Z" fill="white"/>
<path d="M411.372 411.007H410.471V411.908H411.372V411.007Z" fill="white"/>
<path d="M501.75 411.007H500.849V411.908H501.75V411.007Z" fill="white"/>
</g>
</g>
<rect x="0.5" y="0.5" width="505" height="462" rx="16.5" stroke="#FFA0DA"/>
</g>
<defs>
<filter id="filter0_i_232_153" x="0" y="0" width="506" height="465" filterUnits="userSpaceOnUse" color-interpolation-filters="sRGB">
<feFlood flood-opacity="0" result="BackgroundImageFix"/>
<feBlend mode="normal" in="SourceGraphic" in2="BackgroundImageFix" result="shape"/>
<feColorMatrix in="SourceAlpha" type="matrix" values="0 0 0 0 0 0 0 0 0 0 0 0 0 0 0 0 0 0 127 0" result="hardAlpha"/>
<feMorphology radius="10" operator="erode" in="SourceAlpha" result="effect1_innerShadow_232_153"/>
<feOffset dy="2"/>
<feGaussianBlur stdDeviation="7.15"/>
<feComposite in2="hardAlpha" operator="arithmetic" k2="-1" k3="1"/>
<feColorMatrix type="matrix" values="0 0 0 0 0 0 0 0 0 0 0 0 0 0 0 0 0 0 0.25 0"/>
<feBlend mode="normal" in2="shape" result="effect1_innerShadow_232_153"/>
</filter>
<radialGradient id="paint0_radial_232_153" cx="0" cy="0" r="1" gradientUnits="userSpaceOnUse" gradientTransform="translate(253 231.5) rotate(-0.362064) scale(296.558 1115.09)">
<stop offset="0.741386" stop-color="#181718"/>
<stop offset="1" stop-color="#373145"/>
</radialGradient>
<clipPath id="clip0_232_153">
<rect x="1" y="1" width="504" height="461" rx="16" fill="white"/>
</clipPath>
</defs>
</svg>
